<?xml version="1.0" ?><svg style="enable-background:new 0 0 900 900;" version="1.1" viewBox="0 0 900 900" xml:space="preserve" xmlns="http://www.w3.org/2000/svg" xmlns:xlink="http://www.w3.org/1999/xlink"><g id="BG"/><g id="Objects"><g id="Butterfly"><g><g><path d="M313.7,655.5c-23.4,0-46.1-7.7-61.7-27c-12.9-15.9-16-38.7-9-57.8c-3.1-5.4-2.4-13.2,2-22      c13.3-26.7,39.2-49.3,72.7-63.7c4.2-1.8,8.2-3.5,12.1-5c-25.1-6.9-47.1-14-67.4-33.7c-14.6-14.2-36.9-40.8-30.7-66.2      c-8.2-4.2-15.3-11.2-20.6-20.3c-13-22.3-18.6-58.5-3.3-81.7c14.2-21.6,45.6-16.8,68.2-6.2c35.9,16.9,70.2,42.7,102,76.4      c26.5,28.1,58.7,65.5,72.5,105.3c0.8,2.3,1.6,4.2,2.5,5.8c-0.7-4.7,0-9.7,0.4-12.8c1-7.7,4.4-10.3,7.1-11      c4.5-1.3,8.7,1.9,10.4,5.4c1.6,3.3,1.5,6.9,1.4,10.3c-0.2,3.9-1,8.1-2.7,11.6c5.9-4.2,9.2-10.5,12.7-17.1      c1.1-2.2,2.3-4.3,3.5-6.4c6.9-11.8,12.8-21.5,18.4-30.3c14.2-22.2,28-41,42.5-57.3c35.7-40.5,76.9-69,119.3-82.4      c9.8-3.1,21.4-6,32.8-3.3c21.6,5,33.5,28.5,32.6,48.2c-1.1,22.9-15.3,41.8-27.1,53.6c-1.6,1.6-3.2,3.1-4.8,4.6      c1.6,2.1,2.9,4.6,3.8,7.3c2.1,7,0.7,14.3-1,20.5c-14.9,54.4-56.4,79.1-95.4,90.1c14.9,6.4,28.9,14.1,40.8,22.7      c13.9,10,30.2,23.9,33,43.2c0.3,2.3,0.4,4.6,0.2,6.9c3.3,8.6,3.4,17.9,3.2,22.4c-1.1,24.1-16.2,46.6-39.4,58.6      c-46.5,24.2-105-1.4-134.8-40.1c-13.7-17.8-26.4-34.7-36.8-52c-2,24.6-4.8,41.7-10.6,45.8c-1.4,1-3,1.3-4.6,0.9      c-2.2-0.6-4.8-2.5-5.1-8.7c-0.6-12.1-0.8-25-0.8-41.9l0-1.8c0-0.3,0-0.5,0-0.8c-19.9,37.2-43.1,76.7-80.9,96      C353.9,650,333.6,655.5,313.7,655.5z M246.9,575c-5.3,16.9-2.2,36.5,9,50.3c27.2,33.5,77.5,29.4,112.7,11.5      c39.5-20.2,62.9-64,83.6-103c0.2-2.2,0.5-4.5,0.9-6.6c-2.8-0.3-5.5-1.5-7.4-3.8c-2.5-2.9-2.9-7.1-1.2-11c1.4-3.3,4-5.9,7-7.2      c-1.6-6-2.3-12.4,0.2-18.3c1.9-4.7,6.5-8.4,11.6-9.5c4-0.9,7.8,0.1,10.5,2.6c3.6,3.4,4.9,8.9,3.7,16.3c-1,6.2-3,12.1-5.8,17.7      c0.7,1.3,1.3,2.6,1.7,3.9l0,0c2.4,7.3,1.4,15.1,0.6,21.9c-0.1,0.7-0.2,1.7-0.3,3c11,19.2,24.9,37.9,40.2,57.8      c27.9,36.2,84.9,61.3,128.4,38.7c21.6-11.2,35.6-32.1,36.7-54.3c0.1-2.8,0.1-7.4-0.7-12.5c-0.8,1.7-1.7,3.2-2.8,4.7      c-3.8,5.1-8.9,8.2-14.9,9.1c-7.6,1.1-14.3-1.6-18.5-7.5c-4.6-6.5-5.1-15.6-1.2-23c2.8-5.3,8-8.9,14.2-9.8      c6.9-1,14.3,1.3,19.1,6.2c0.2,0.2,0.5,0.5,0.7,0.7c-4.1-15.5-18.1-27.3-30.2-35.9c-13.3-9.6-29.1-18-46.1-24.7      c-21.4,5.1-41.4,6.3-55,6.3c-14.9,0.1-33.5-0.6-45.9-6.5c-7.3-3.5-7.9-7.6-7.7-9.8c0.6-4.6,5.7-8.3,13.9-10c14-2.9,29-1.4,39,0      c18.8,2.6,38,7.7,56.1,14.7c39.5-9.7,83.3-33.1,98.4-88.2c1.5-5.5,2.8-12,1.1-17.7c-0.6-2-1.6-3.9-2.8-5.5      c-7.5,5.9-14.6,9.3-22,10.6c-5.8,1-28.3,1.1-30.8-10.3c-0.6-2.9,0-5.6,1.9-7.8c7.3-8.5,30.7-7.4,31-7.4c6.8,0.4,14.6,3,20.3,8      c1.5-1.4,3.1-2.8,4.7-4.4c11.2-11.2,24.6-29,25.6-50.3c0.8-17.7-9.7-38.6-28.7-43c-10.2-2.4-20.9,0.3-30.1,3.2      c-41.5,13.2-82,41.2-117,81c-14.2,16.1-28,34.7-42,56.7c-5.6,8.8-11.4,18.4-18.3,30.2c-1.2,2-2.3,4.2-3.4,6.2      c-3.7,7.1-7.6,14.5-15,19.4c-2.2,1.5-5.7,3.4-9.4,2.7c-0.6-0.1-1.1-0.2-1.6-0.4c-0.3,0-0.6,0.1-1,0.1c-0.1,0-0.2,0-0.2,0      c-8.8,0-12.6-11-13.9-14.7c-13.5-38.9-45.2-75.7-71.4-103.5c-31.4-33.3-65.2-58.7-100.5-75.3c-20.7-9.8-49.3-14.5-61.7,4.4      c-14.1,21.5-8.7,55.4,3.5,76.4c4.6,7.9,10.8,14.1,17.8,17.9c0.2-0.5,0.4-0.9,0.6-1.4c6.6-14.8,21.9-23.7,40.2-23.3      c2.7,0.1,6.1,0.4,9,2.1c3.4,2.1,5.4,5.9,4.7,9.4c-0.4,2.1-1.6,3.8-2.7,5.2c-9.6,12.2-23.1,18.6-37,17.6c-4-0.3-7.9-1.1-11.6-2.5      c-4.9,23.7,18.5,49.7,29.5,60.4c21.1,20.5,44.6,26.9,71.7,34.3c19.9-7.7,36.8-12.9,53.2-16.3c0.5-0.1,48.3-9.9,52.6,8.3      c0.9,3.8,0,7.4-2.5,10.4c-12,14.1-59.8,11.8-60.3,11.7c-12.6-0.9-25-4-36.4-7.1l-6.2-1.7c-5.8,2.3-11.9,4.8-18.3,7.5      c-32.5,13.9-57.4,35.7-70.2,61.3c-1.3,2.6-3.6,7.9-3.3,12.7c1.1-2,2.3-4,3.7-5.9c6.8-9.5,19-15.6,27.8-9.6      c3.4,2.3,5.4,6.1,5.8,10.6c0.5,5.2-1.5,10.6-5,14.1c-6.8,6.7-17.2,7.1-24.7,5.2C251,577.3,248.7,576.3,246.9,575z M457.2,535.2      c-0.3,3.9-0.3,7.7-0.3,10.9l0,1.9c0,16.8,0.2,29.6,0.8,41.6c0.1,2.6,0.7,3.9,1.3,4c0.1,0,0.1,0,0.4-0.1c5.6-4,8.1-37,8.9-47.8      c0-0.6,0.1-1.1,0.1-1.6c-2.8-5.1-5.5-10.2-7.9-15.3c-0.4,0.9-0.9,1.8-1.3,2.7l-1.8,3.5C457.3,535,457.2,535.1,457.2,535.2z       M658.2,550.8c-0.9,0-1.7,0.1-2.5,0.2c-4.7,0.7-8.4,3.3-10.4,7.2c-3,5.8-2.7,12.8,0.8,17.7c3.1,4.3,8,6.3,13.6,5.4      c5.8-0.9,9.5-4.3,11.6-7.1c2.3-3.1,3.7-6.8,4.3-10.7c-1.2-2.9-2.9-5.6-5.1-7.8C667.3,552.6,662.8,550.8,658.2,550.8z       M248.8,569.9c1.4,1.4,3.4,2.4,6.3,3.1c6.1,1.6,14.5,1.4,19.8-3.9c2.5-2.5,3.8-6.3,3.5-10c-0.3-3-1.6-5.4-3.6-6.8      c-6.8-4.7-16.4,2.2-20.8,8.4C251.9,563.6,250.2,566.7,248.8,569.9z M464,524.1c1.7,3.7,3.5,7.4,5.4,11      c0.5-5.2,0.7-10.6-0.9-15.5v0c0-0.1,0-0.1-0.1-0.2C467.2,521.1,465.7,522.7,464,524.1z M453,510.1c-1.6,0.9-3,2.4-3.8,4.3      c-0.4,1-1.3,3.7,0.4,5.7c1.2,1.4,3,2.1,4.9,2.1c0.5-1.2,1-2.4,1.6-3.5c-1.1-2.8-2.1-5.5-3.1-8.3C453,510.3,453,510.2,453,510.1z       M460.3,515.3c0.1,0,0.1,0,0.2,0c0.9,0.2,1.7,0.9,1.9,1.8c0.1,0.4,0.2,0.8,0.3,1.2c1-1.1,2-2.4,3-4c-1.9-2.5-4.6-4.4-7.5-5      C458.8,511.4,459.5,513.3,460.3,515.3z M456.4,504.1c4.6,0,8.6,2.2,11.7,5.4c2-4.4,3.4-9.1,4.2-13.9c0.9-5.6,0.2-9.6-2.1-11.8      c-1.9-1.8-4.3-1.7-6-1.4c-3.4,0.7-6.6,3.3-7.9,6.4C454.4,493.5,455,498.9,456.4,504.1z M521.5,475.7c-5.5,0-11.2,0.4-16.7,1.5      c-6.2,1.3-9.6,3.8-9.9,5.6c-0.2,1.4,1.7,3.1,4.8,4.6c11.5,5.4,29.4,6.1,43.7,6c11.6,0,28.2-0.9,46.2-4.5      c-15.5-5.5-31.7-9.5-47.6-11.7C536.4,476.5,529.2,475.7,521.5,475.7z M346.1,479.1c11.1,3,23,5.9,35,6.8      c11.5,0.8,47.5,0,56.1-10c1.5-1.8,2-3.7,1.4-5.9c-2.2-9.6-31.4-7.6-46.6-4.5C377.7,468.5,362.9,472.8,346.1,479.1z M462.4,440.4      c-0.2,0-0.4,0-0.6,0.1c-2.3,0.7-3.1,4.5-3.4,6.8c-1,7.3-1.3,14.9,2.9,17.3c4.2-1.6,5.7-9,5.9-13.5c0.1-2.9,0.2-5.7-0.9-7.8      C465.5,441.7,463.9,440.4,462.4,440.4z M672.5,365.5c-7.9,0-20.3,1.5-23.9,5.7c-0.9,1-1.1,2.1-0.8,3.4c1.3,6,18.2,7.6,24.9,6.4      c6.4-1.1,12.7-4.1,19.3-9.3c-4.7-3.9-11.1-5.9-16.6-6.2C674.5,365.6,673.5,365.5,672.5,365.5z M237.9,377.2      c3.4,1.3,6.9,2.1,10.5,2.4c12.3,0.9,24-4.7,32.7-15.7c0.8-1,1.5-2,1.7-3c0.3-1.4-0.7-3.1-2.3-4.1c-1.9-1.2-4.5-1.4-6.5-1.4      c-16.1-0.4-29.7,7.4-35.5,20.3C238.3,376.2,238.1,376.7,237.9,377.2z"/></g><g><path d="M462.7,438.9c-0.2,0-0.4,0-0.5-0.1c-0.7-0.2-1.3-0.6-1.7-1.3c-4.4-8-4.8-17.1-5.3-25.9c-0.3-5.4-0.6-11.1-1.8-16.2      c-1.2-4.9-3.2-9.5-5.3-14.3c-1.2-2.9-2.5-5.8-3.6-8.9c-4.5-12.3-5.7-25.7-3.7-38.6c0.2-1.4,1.6-2.3,2.9-2.1      c1.4,0.2,2.3,1.5,2.1,2.9c-1.9,12.1-0.7,24.5,3.5,36.1c1,2.9,2.3,5.8,3.5,8.6c2.1,4.8,4.3,9.8,5.5,15.1c1.3,5.6,1.7,11.5,2,17.2      c0.4,7.4,0.8,14.5,3.3,20.8c2.5-2.8,4.2-6.5,4.3-10.1c0.7-17.3,7.1-31.7,13.3-45.6c5.8-12.9,11.2-25.2,11.1-38.2      c0-1.4,1.1-2.6,2.5-2.6h0c1.4,0,2.5,1.1,2.6,2.5c0.1,14.1-5.5,26.8-11.5,40.3c-6,13.5-12.2,27.4-12.9,43.7      c-0.3,6.1-3.6,12.3-8.7,16.1C463.8,438.8,463.3,438.9,462.7,438.9z"/></g></g></g></g></svg>