<?xml version="1.0" ?><svg style="enable-background:new 0 0 900 900;" version="1.1" viewBox="0 0 900 900" xml:space="preserve" xmlns="http://www.w3.org/2000/svg" xmlns:xlink="http://www.w3.org/1999/xlink"><g id="BG"/><g id="Objects"><g id="Flower_x5F_pot"><g><g><path d="M439.4,735.2c-4.2,0-7.5-0.1-9.4-0.2c-18-1.1-40.6-4-50.1-8.8c-10.9-5.4-21.5-51.6-23.8-63.7      c-3.5-18.9-9.3-64.4-3.4-76.8c4.6-9.7,28.5-15,77.4-17.2c4-0.2,8.8-0.2,14.1-0.2c-0.1-2.5-0.1-5.3-0.2-8.2      c0-1.4,1.1-2.6,2.5-2.6l0,0c1.4,0,2.5,1.1,2.6,2.5c0,3,0.1,5.7,0.1,8.3c28.9,0.6,69.3,4,84.1,8.1c11.7,3.2,16.5,6,17.2,9.9      c0.6,3.4-2.3,6.1-4.9,8c-7.3,5.3-47.1,12.7-71.9,12c-23.5-0.6-28.3-3.7-29.5-33c-5.2,0-10,0-14,0.2c-56,2.5-70.6,9.2-73,14.3      c-4.6,9.7-0.7,49.7,3.8,73.7c4.7,25.3,15,57,21.1,60.1c7.2,3.6,26.1,6.9,48.2,8.2c24.4,1.5,80.8-2.8,84-10.5      c3.2-7.8,17.4-59.2,25.1-86.8c2.3-8.3,4.1-14.7,4.9-17.6c0.4-1.4,1.8-2.1,3.1-1.7c1.4,0.4,2.1,1.8,1.7,3.1      c-0.8,2.9-2.6,9.3-4.9,17.5c-8.2,29.6-21.9,79.2-25.2,87.4C514.3,732.8,462.5,735.2,439.4,735.2z M449.4,573.5      c1,27.2,4.5,27.3,24.5,27.8c24.4,0.6,62.9-6.8,68.8-11c2.8-2.1,2.9-2.9,2.9-2.9c0-0.1-0.5-2.3-13.6-5.9      C518.7,577.7,478.7,574.1,449.4,573.5z"/></g><g><path d="M446.7,565.5c-0.1,0-0.1,0-0.2,0c-1.4-0.1-2.5-1.3-2.4-2.7c0.3-4.5,0.1-9-0.2-13.8c-0.3-6-0.6-12.1,0.2-18.2      c-1.8-0.3-3.5-0.8-5.2-1.4c-3.1-1.2-5.8-2.9-8.5-4.8c-7.5,6.6-16.9,11.6-27.4,14.7c-18.7,5.4-37.9,3.4-51.4-5.4      c-13.8-9-33.6-27.4-41.4-41.5c-1.8-3.3-1.6-6.3,0.5-8c1.4-1.1,3-1.1,3.9-1.2c39.4-1,84.6,12.6,115.2,34.6l0.2,0.1      c4.4-4.4,7.9-9.4,10.4-14.8c6.4-13.9,5.1-29.9,1.1-45.3c-1.7,2.2-3.7,4.2-6,6.7c-2.6,2.7-5.5,5.8-9.1,10      c-2.1,2.5-4.9,5.8-8.9,7.3c-6.8,2.5-14.3-0.6-22.5-9.1c-12.7-13.3-23.7-28.1-32.6-44.1c-0.9-1.6-2.3-4.2-1.9-7.1      c0.3-2.1,1.6-4,3.9-5.8c6.4-5.1,14.9-6.2,23.1-6.8c15.6-1.2,32.9-0.9,43.5,10.7c4.5,4.9,7,11.1,9.3,17.5      c0.9,2.3,1.7,4.7,2.5,7.1c0.9-3.1,1.6-6.8,2.3-11.7c1.9-13.8,7.9-18.9,18.7-28.2c10.8-9.2,27.2-23.2,50.9-55.4      c5.3-7.2,11.5-14.7,18.8-22.7c-4.3,1-8.6,2.1-12.9,3.1c-2.5,0.6-5.1,1.2-7.6,1.7c-9.6,2.2-18.8,4.2-27.1,9      c-9.9,5.7-18.7,13.8-25.6,23.2c-2.9,4-6.7,10.5-9.6,16.9c0.3,2.5,0.6,5,0.8,7.5c0.6,5.4,1.3,11,1.5,16.6c0,0.8-0.3,1.6-0.9,2.1      c-0.6,0.5-1.4,0.7-2.2,0.5c-3.8-0.9-6.5-3.1-7.7-6.5c-2.1-5.6,0.1-13.7,3.3-21.1c0-0.3-0.1-0.7-0.1-1c-0.6-6.6-0.1-12.9,0.3-19      c0.3-3.7,0.5-7.3,0.5-10.9c-1,0.9-2.1,1.7-3.5,2.4c-20.4,11.2-46.2-2.1-61.5-19.1c-4.7-5.3-8.9-11-13-16.6      c-3.1-4.3-6.4-8.8-9.9-13c-11.7-2.8-15.2-5-16.3-7.3c-0.5-1.1-0.4-2.4,0.2-3.5c1.9-3.1,6-3.7,8.9-2.7c2.7,1,4.6,3,6.1,4.6      c1.3,1.4,2.6,2.8,3.9,4.3c3.1,0.7,7,1.5,11.6,2.4l1.6,0.3c6,1.2,12.3,2,18.3,2.8c9.1,1.2,18.4,2.4,27.6,5.1      c9.2,2.7,18.6,5.9,23.7,13.4c1.8,2.7,3.2,5.4,4.3,8.2c0.2-1.4,0.4-2.8,0.6-4.3c1.9-10.4,4.3-20.3,7.2-29.7c-0.6,0-1.3,0-1.9-0.1      c-6.4-0.8-11.7-5.2-15.5-8.4c-17.8-15-35.6-30.6-52.9-46.3c-2.9-2.6-5.9-5.2-8.8-7.8c-8-6.9-16.2-14.1-23-22.4      c-2.7-3.3-5.5-6.8-7.5-10.9c-1.5-3.1-0.9-5.4-0.1-6.8c2.5-4.5,10.1-5.4,14.2-5.8c19.8-2.3,36.7,6,51.7,13.2      c10.4,5,18.2,10.7,24.6,17.9c12.8,14.3,21.9,37,23.7,59.2c0.1,1.4-0.9,2.6-2.3,2.7c-1.3,0.1-2.6-0.9-2.7-2.3      c-1.7-21.1-10.3-42.7-22.4-56.2c-6-6.7-13.3-12-23.1-16.7c-15-7.3-30.6-14.9-48.9-12.7c-2.2,0.3-9.1,1-10.3,3.2      c-0.1,0.2-0.4,0.7,0.3,2.1c1.7,3.5,4.3,6.8,6.9,9.9c6.5,8,14.6,15,22.3,21.7c3,2.6,6,5.2,8.9,7.9c17.3,15.7,35,31.3,52.8,46.2      c4.3,3.7,8.3,6.7,12.9,7.3c1,0.1,2,0.1,3,0c1.4-4.1,2.9-8,4.5-11.9c9.3-22.1,21-37,35.9-45.7c11-6.5,23.7-9,35.9-11.5      c5-1,10.1-2,15.1-3.3c2.4-2,4.9-3.9,7.4-5.8c5.8-4.4,9.5-3.5,11.6-2c0.6,0.4,0.9,1,1,1.7c0.1,0.7,0,1.4-0.4,1.9      c-2.8,3.9-7.2,5.7-11.5,7.2c-1.9,0.6-3.8,1.2-5.7,1.7c-16.4,13.2-31.2,27.4-43.9,39.9c-8.4,8.3-16.6,15.1-25.1,20.9l-1.8,1.2      c-5.4,3.7-12.2,8.4-19.2,10.2c-3.2,9.8-5.8,20.3-7.8,31.3c-0.3,1.7-0.5,3.4-0.7,5c-0.4,3.5-0.9,7-2.2,10.3      c0.6,6.1,0.2,12.2-0.3,18.1c-0.2,3.4-0.5,6.8-0.6,10.2c3.1-5.5,5.9-9.4,6-9.5c7.2-10,16.6-18.6,27.1-24.7      c9.1-5.3,19-7.5,28.6-9.6c2.5-0.6,5-1.1,7.5-1.7c6.8-1.7,13.5-3.3,20.3-4.9c0.4-0.4,0.7-0.8,1.1-1.2      c7.3-8.2,15.5-17.4,27.7-18.3c7.2-0.5,11,3.1,11.6,6.9c0.6,3.8-2,8.6-9.1,10.4c-9.5,2.3-19,4.6-28.5,6.9c-0.5,0.6-1,1.1-1.5,1.7      c-8.8,9.4-16,18-22.1,26.3c-24.1,32.7-40.7,46.9-51.7,56.3c-10.5,9-15.3,13.1-17,25c-1.2,8.9-2.8,14.4-4.9,18.8      c5.1,17.7,7.5,36.5-0.2,53.2c-2.6,5.7-6.3,11-10.8,15.7c2.1,1.4,4.2,2.7,6.5,3.6c1.4,0.5,2.8,0.9,4.3,1.2      c3-13.2,9.1-25.5,17.8-35.6c14.6-17,35.5-20.9,55.7-24.7c7.4-1.4,15-2.8,22.2-4.9c2.6-0.7,5.2-1.5,7.7-2.3      c0.7-1.5,1.4-3,2.1-4.6c1.6-3.7,3.2-7.6,5.9-10.7c2.8-3.2,12.6-5.1,17.1-3.3c2.2,0.9,3.4,2.6,3.4,4.8c-0.1,2-1.3,3.6-2.4,4.8      c-6.1,6.4-13.9,10.2-22.5,13.2c-0.3,0.6-0.7,1.2-1.1,1.7c-12.5,18.4-20.2,28.2-36.1,41.5c-11.3,9.4-24,16.4-36.7,20.1l-1.7,0.5      c-8.3,2.5-18,5.3-27.2,5c-0.7,5.7-0.4,11.6-0.1,17.4c0.2,4.7,0.5,9.6,0.2,14.3C449.1,564.4,448,565.5,446.7,565.5z M314,488.4      c0,0.3,0.2,0.9,0.6,1.6c7.2,13,26.4,31,39.7,39.7c12.3,8,29.9,9.8,47.3,4.7c9.4-2.7,17.8-7.2,24.6-12.9      c-29.7-21.1-73.5-34.2-111.5-33.2C314.6,488.4,314.3,488.4,314,488.4z M450.1,526.3c8.3,0.2,17.2-2.6,24.9-4.8l1.7-0.5      c12.1-3.6,24.1-10.2,34.9-19.2c14.4-12,21.9-21.1,32.8-36.9c-0.7,0.2-1.4,0.4-2.2,0.6c-7.4,2.1-15.2,3.6-22.7,5      c-20.2,3.8-39.3,7.4-52.8,23C458.7,502.9,452.9,514.2,450.1,526.3z M398.3,413.7c-3.5,0-7.1,0.2-10.5,0.5      c-7.7,0.6-15,1.5-20.3,5.7c-1.2,1-1.9,1.9-2,2.6c-0.2,1.1,0.5,2.4,1.3,3.8c8.8,15.6,19.5,30.1,31.9,43.1c6.7,7,12.4,9.6,17,7.9      c2.5-0.9,4.6-3.2,6.8-5.8c3.7-4.3,6.8-7.6,9.3-10.2c3.5-3.7,6-6.3,7.9-9.6c-1.3-4.3-2.8-8.5-4.2-12.6      c-2.3-6.2-4.4-11.6-8.3-15.8C420.2,415.7,409.4,413.7,398.3,413.7z M569.1,444.2c-0.3,0-0.6,0-0.9,0c-3.8,0.2-7.3,1.6-7.9,2.2      c-2.1,2.5-3.6,5.8-5.1,9.3c0,0.1,0,0.1-0.1,0.2c6-2.5,11.4-5.6,15.6-10c0.7-0.7,1-1.2,1-1.5C571.8,444.5,571,444.2,569.1,444.2z       M446.8,391.8c-0.5,2.8-0.6,5.3,0.1,7.1c0.2,0.5,0.4,0.9,0.7,1.3C447.5,397.4,447.2,394.6,446.8,391.8z M366.3,304.1      c2.1,2.7,4.1,5.5,6.1,8.2c4,5.5,8.1,11.1,12.6,16.2c11.7,13,36.1,28.6,55.2,18.1c2.8-1.5,4.4-3.3,5.5-5.5      c-0.7-5.6-2.4-11-6-16.5c-4.1-6.1-12.5-8.9-20.8-11.3c-8.8-2.5-18-3.7-26.8-4.9c-6.1-0.8-12.4-1.6-18.6-2.9l-1.5-0.3      C370,304.8,368.1,304.4,366.3,304.1z M569.8,305.1c-0.3,0-0.7,0-1,0c-8.2,0.6-14.6,6.1-20.4,12.4c7.1-1.7,14.2-3.4,21.3-5.2      c3.8-0.9,5.5-3,5.3-4.6C574.8,306.4,573.1,305.1,569.8,305.1z M347.7,293.5c0.8,0.4,2.1,1,4.3,1.7c-0.8-0.7-1.6-1.3-2.5-1.6      C348.9,293.4,348.3,293.4,347.7,293.5z M540.5,225.6c-1.8,0.4-3.5,0.7-5.3,1.1c-11.8,2.4-24,4.8-34.3,10.9      c-13.9,8.1-24.9,22.3-33.8,43.3c-1.1,2.7-2.2,5.5-3.3,8.3c5-2,10.1-5.5,14.2-8.3l1.8-1.2c8.3-5.6,16.2-12.2,24.4-20.3      C514.9,248.8,527.1,237,540.5,225.6z"/></g></g></g></g></svg>